<?xml version="1.0" encoding="utf-8"?>
<!-- Svg Vector Icons : http://www.onlinewebfonts.com/icon -->
<!DOCTYPE svg PUBLIC "-//W3C//DTD SVG 1.1//EN" "http://www.w3.org/Graphics/SVG/1.1/DTD/svg11.dtd">
<svg version="1.1" xmlns="http://www.w3.org/2000/svg" xmlns:xlink="http://www.w3.org/1999/xlink" x="0px" y="0px" viewBox="0 0 256 256" enable-background="new 0 0 256 256" xml:space="preserve">
<metadata> Svg Vector Icons : http://www.onlinewebfonts.com/icon </metadata>
<g><g><g><g><path fill="#000000" d="M236.6,82.1c-12.5-29-33.6-50.1-62.8-62.6c-14.6-6.2-29.9-9.4-46-9.4c-16,0-31.2,3.2-45.8,9.4C53,31.9,31.7,53,19.3,82.1C13,96.6,10,111.9,10,127.9c0,16,3,31.4,9.3,46C31.8,202.9,53,224.1,82,236.5c14.6,6.3,29.8,9.4,45.8,9.4c16,0,31.3-3.2,45.9-9.4c29.3-12.5,50.4-33.7,62.8-62.7c6.3-14.6,9.4-29.9,9.4-46C246,111.9,242.9,96.7,236.6,82.1z M217.8,180c-9.3,15.9-22,28.5-37.9,37.8c-15.9,9.3-33.3,13.9-52,13.9c-14.1,0-27.5-2.7-40.3-8.3c-12.8-5.5-23.8-12.8-33-22.1c-9.2-9.2-16.6-20.4-22.1-33.2c-5.5-12.7-8.1-26.3-8.1-40.4c0-18.7,4.6-36,13.8-51.9c9.2-15.9,21.9-28.5,37.8-37.8s33.2-13.9,51.9-13.9c18.7,0,36.1,4.7,52,13.9c16,9.3,28.7,21.9,37.9,37.8c9.3,15.9,13.9,33.2,13.9,51.9C231.7,146.6,227.1,164,217.8,180z"/><path fill="#000000" d="M135.3,126.8V60c0-4-3.5-7.2-7.5-7.2c-3.7,0-7.1,3.2-7.1,7.2v67.9c0,0.1,0.3,0.7,0.3,1c-0.3,2.3,0.4,4.3,1.9,5.8l38.6,38.6c2.6,2.6,7.3,2.6,9.9,0c3-3,2.8-7.3,0-10.1L135.3,126.8z"/></g></g><g></g><g></g><g></g><g></g><g></g><g></g><g></g><g></g><g></g><g></g><g></g><g></g><g></g><g></g><g></g></g></g>
</svg>